<svg class="icon" viewBox="0 0 18 17" xmlns="http://www.w3.org/2000/svg"><path d="M18 4.683c-.036.197-.064.396-.108.591a4.117 4.117 0 01-1 1.928 532.628 532.628 0 01-3.414 3.639c-.618.65-1.317 1.172-2.168 1.41-1.247.35-2.29-.061-3.164-1.025-.38-.42-.35-1.09.03-1.506a.974.974 0 011.392-.063c.028.026.055.055.082.083.464.48.914.577 1.48.245a4.16 4.16 0 00.893-.701 296.04 296.04 0 003.406-3.623c.722-.78.696-2.022-.041-2.783a2.217 2.217 0 00-.84-.568c-.575-.206-1.093-.104-1.534.355-.363.377-.713.77-1.08 1.144-.567.576-1.483.303-1.69-.5-.095-.371-.037-.725.21-1.003.424-.476.856-.945 1.31-1.387a3.167 3.167 0 011.853-.89c.031-.005.062-.02.092-.029h.645c.03.01.06.026.09.03 1.62.217 3.047 1.568 3.442 3.263.048.207.077.418.114.627v.763z"/><path d="M0 12.251c.052-.27.092-.542.16-.806.17-.67.481-1.257.93-1.748a401.181 401.181 0 013.267-3.539c.687-.732 1.474-1.3 2.422-1.545 1.149-.299 2.16-.006 3.016.893.416.437.44 1.118.063 1.571-.384.462-1.016.508-1.445.072-.47-.478-.977-.506-1.533-.235-.443.217-.817.542-1.16.911a908.956 908.956 0 00-3.115 3.38c-.726.792-.745 2.019-.049 2.807.709.803 1.871.842 2.616.08.299-.306.579-.633.873-.942.311-.327.68-.427 1.085-.26.405.166.627.502.664.973a1.08 1.08 0 01-.264.824c-.339.379-.677.758-1.036 1.113-.607.6-1.328.943-2.143 1.045-.03.004-.06.02-.09.03h-.71c-.036-.01-.071-.026-.107-.03-1.568-.198-2.87-1.402-3.298-3.062-.064-.247-.098-.503-.146-.755v-.777z"/></svg>