<svg class="icon" viewBox="0 0 18 14" xmlns="http://www.w3.org/2000/svg"><path d="M0 1.505v10.63c0 .158.181.236.286.124L5.51 6.714.285 1.381C.18 1.271 0 1.35 0 1.505zm8.883 6.691a.411.411 0 00.295-.124L16.871.288c.105-.107.03-.288-.118-.288H.987a.168.168 0 00-.118.288l7.719 7.785c.108.078.183.123.295.123zm1.006.969c-.29.275-.58.532-.993.532h-.013c-.375-.032-.627-.221-.925-.532L6.33 7.549l-5.241 5.603c-.104.111-.03.298.119.298l15.478.05c.145 0 .221-.182.123-.294L11.55 7.574l-1.66 1.59zM17.71 12.3l-5.35-5.56 5.356-5.563c.105-.11.285-.032.285.123v10.88c0 .16-.187.236-.29.119z"/></svg>