<svg class="icon" viewBox="0 0 16 18" xmlns="http://www.w3.org/2000/svg"><path d="M13.216 1.383c1.296.851 2.2 2.078 2.44 3.638.099.627.118 1.261.065 1.884-.128 1.488-.674 2.915-1.58 4.018-.913 1.116-2.193 1.903-3.775 2.097-.391.048-.8.06-1.225.031-.953-.067-1.483-.393-2.103-.774-.12-.074-.245-.15-.374-.226-.246 1.117-.526 2.206-.953 3.17-.47 1.06-1.118 1.967-2.09 2.594L3.334 18l-.05-.313c-.43-2.714.235-4.918.881-7.06.223-.739.444-1.471.614-2.2-.383-.613-.483-1.414-.352-2.171a3.5 3.5 0 01.608-1.47c.317-.43.74-.753 1.25-.885.396-.103.838-.09 1.316.078 1.587.559 1.033 2.1.48 3.64-.174.484-.348.969-.45 1.42-.203.904-.087 1.642 1.063 1.846a2.578 2.578 0 001.712-.256c.68-.365 1.22-1.028 1.591-1.823.379-.808.583-1.75.588-2.654.006-1.194-.33-2.32-1.067-2.983-.829-.745-1.848-1.118-2.897-1.19a6.213 6.213 0 00-2.976.56c-.926.422-1.733 1.058-2.278 1.842-.59.846-.873 1.867-.67 2.981.061.337.244.603.419.86.387.566.744 1.088.06 2.163l-.077.122-.154-.03C1.869 10.266 1.14 9.803.673 9.15.213 8.51.017 7.69 0 6.75v-.004a6.343 6.343 0 011.952-4.521C3.167 1.043 4.876.257 6.869.059A12.388 12.388 0 018.046 0c1.953-.004 3.786.474 5.17 1.383"/></svg>