<svg class="icon" viewBox="0 0 18 15" xmlns="http://www.w3.org/2000/svg"><path d="M17.578.342c-.703.274-1.406.686-2.39.823-2.11-2.606-7.454-.549-6.47 3.293C5.064 4.183 2.814 2.538.985.616 0 2.263.844 4.87 2.11 5.556c-.562 0-1.125-.138-1.546-.412.14 2.195 1.265 3.155 2.953 3.704-.422 0-.985.137-1.547 0 .562 1.51 1.687 2.47 3.515 2.607C4.22 12.552 1.828 13.238 0 12.964c1.688.96 3.516 1.783 6.047 1.646 6.187-.274 10.265-4.665 10.406-10.975.703-.55 1.406-1.098 1.547-1.784-.563.275-1.266.412-1.969.549.703-.549 1.266-1.098 1.547-2.058"/></svg>